# xmcd
#
# Track frame offsets: 
#        150
#        12982
#        23975
#        32927
#        45067
#        55841
#        65454
#        74631
#        87970
#        96770
#        109037
#        122191
#        136174
#        147200
#        157456
#        168298
#        178979
#        188467
#        197947
#        210098
#
# Disc length: 2920 seconds
#
# Revision: 0
# Processed by: cddbd v1.5.2PL0 Copyright (c) Steve Scherf et al.
# Submitted via: ExactAudioCopy v1.0b1
#
DISCID=1a0b6614
DTITLE=Various Artist - Kickin' Country [CD3)
DYEAR=2017
DGENRE=Country
TTITLE0=Hank Snow - I'm Movin' On
TTITLE1=Justin Tubb and Goldie Hill - Sure Fire Kisses
TTITLE2=Merle Kilgore - Seein' Double Feelin' Single
TTITLE3=Mac Sales - A Gal Named Joe
TTITLE4=Maddox Bros and Rose - I Gotta Get My Baby
TTITLE5=Moon Mullican - Good Deal Lucille
TTITLE6=Gene Rodrigue With The Bayou Boys - Jole Fille
TTITLE7=Tune Wranglers - El Rancho Grande
TTITLE8=Don Reno and Arthur Smith - Feudin' Banjos
TTITLE9=Boots Woodall - Rattle Snakin' Daddy
TTITLE10=Curley Williams and His Georgia Peach Pickers - Georgia Boogie
TTITLE11=Paul Howard - Hora Sta Cotton Picker
TTITLE12=Bob Wills - Hubbin' It
TTITLE13=Hoyle Nix - Comin' Down The Pecos
TTITLE14=Bud Hobbs - Louisiana Swing
TTITLE15=Johnny Duncan and The Bluegrass Boys - Get Along Home Cindy
TTITLE16=Al Coker - Don't Go, Baby (Don't Go)
TTITLE17=Porter Wagoner - Tell Her Lies And Feed Her Candy
TTITLE18=Denver Duke Jeffrey Null - Rock And Roll Blues
TTITLE19=The Greenbriar Boys - Down The Road
EXTD=
EXTT0=
EXTT1=
EXTT2=
EXTT3=
EXTT4=
EXTT5=
EXTT6=
EXTT7=
EXTT8=
EXTT9=
EXTT10=
EXTT11=
EXTT12=
EXTT13=
EXTT14=
EXTT15=
EXTT16=
EXTT17=
EXTT18=
EXTT19=
PLAYORDER=
